<svg width="180" height="184" viewBox="0 0 180 184" fill="none" xmlns="http://www.w3.org/2000/svg">
<path d="M47.6956 15.7014C51.41 1.86171 67.4899 -4.35242 79.6939 3.33558L107.204 20.6658C110.927 23.0113 115.273 24.1637 119.654 23.967L152.02 22.5138C166.379 21.8691 177.388 35.2663 173.929 49.1736L166.131 80.5233C165.075 84.7663 165.353 89.241 166.927 93.3418L178.558 123.641C183.718 137.082 174.442 151.576 160.1 152.483L127.77 154.528C123.395 154.805 119.221 156.418 115.813 159.149L90.6346 179.329C79.465 188.28 62.7228 183.841 57.3184 170.494L45.1358 140.409C43.4869 136.337 40.629 132.859 36.9488 130.446L9.75714 112.618C-2.30561 104.71 -3.3772 87.4718 7.62472 78.3159L32.4251 57.6769C35.7816 54.8835 38.1895 51.1211 39.3227 46.8987L47.6956 15.7014Z" fill="url(#paint0_linear)"/>
<path d="M143.34 120.692L141.69 120.688L141.587 69.0675C141.586 68.1479 140.845 67.4009 139.934 67.3991L50.8402 67.2221C49.929 67.2203 49.1918 67.9644 49.1936 68.884L49.2965 120.505L47.6466 120.502C46.7354 120.5 45.9982 121.244 46 122.163L46.0066 125.494C46.0212 130.09 49.719 133.822 54.2727 133.836L136.767 134C141.321 134.004 145.004 130.286 145 125.69L144.993 122.36C144.992 121.44 144.251 120.693 143.34 120.692ZM52.4967 70.5558L138.291 70.7262L138.39 120.682L108.692 120.623C108.255 120.624 107.836 120.799 107.525 121.11L104.716 123.945L86.2837 123.909L83.4633 121.062C83.1519 120.75 82.7321 120.574 82.2942 120.57L52.5962 120.511L52.4967 70.5558ZM141.7 125.684C141.706 128.443 139.494 130.675 136.76 130.67L54.266 130.506C51.5324 130.5 49.3119 128.259 49.3064 125.5L49.3031 123.835L81.6178 123.899L84.4399 126.747C84.7498 127.06 85.1697 127.237 85.6073 127.238L105.406 127.277C105.844 127.278 106.263 127.103 106.571 126.791L109.382 123.955L141.697 124.019L141.7 125.684Z" fill="white"/>
<path d="M79.8795 104.246C81.3436 105.303 83.337 105.185 84.6591 103.962L101.214 88.6496C101.826 88.083 102.735 87.9861 103.455 88.4104L119.531 97.8812C121.025 98.7612 122.915 98.5173 124.133 97.2875L135.555 85.7565C136.266 85.0383 136.665 84.0631 136.663 83.0454L136.641 72.389L54.147 72.2251L54.2078 102.751C54.2141 105.945 57.8575 107.748 60.3512 105.792L69.6203 98.5204C70.2832 98.0003 71.2076 97.9832 71.893 98.4781L79.8795 104.246ZM60.5732 101.393C59.3263 102.371 57.505 101.469 57.5018 99.8723L57.4534 75.5621L133.348 75.7128L133.362 82.4548C133.363 82.9636 133.163 83.4512 132.808 83.8103L122.556 94.1603C121.947 94.7752 121.002 94.8971 120.256 94.4573L104.219 85.0127C102.778 84.1644 100.962 84.3583 99.7371 85.4913L83.2589 100.731C82.598 101.342 81.6015 101.401 80.8695 100.873L72.9569 95.1614C71.5864 94.1721 69.7383 94.2064 68.4128 95.2458L60.5732 101.393Z" fill="white"/>
<path d="M68.986 65.5927C69.8972 65.5945 70.6344 64.8504 70.6326 63.9308L70.6255 60.3456L76.3569 59.3912C77.0154 59.2807 77.5413 58.7801 77.6891 58.1233C78.1286 56.1655 78.8907 54.297 79.9434 52.5961C80.2984 52.0244 80.2747 51.2912 79.8836 50.7409L76.4968 45.9701L79.1824 43.2596L83.9095 46.6776C84.4547 47.0723 85.1809 47.0962 85.7476 46.7378C87.431 45.6759 89.2798 44.9067 91.2174 44.4624C91.8681 44.3132 92.3641 43.7824 92.4735 43.1178L93.4255 37.3332L97.2302 37.3407L98.1987 43.1291C98.3107 43.7942 98.8088 44.327 99.4602 44.4788C101.402 44.9301 103.256 45.7067 104.946 46.776C105.514 47.1366 106.24 47.1155 106.784 46.723L111.497 43.3237L114.193 46.045L110.826 50.8024C110.437 51.3511 110.416 52.084 110.773 52.6573C111.832 54.3604 112.602 56.2296 113.05 58.1869C113.2 58.8443 113.728 59.347 114.387 59.4601L120.122 60.4373L120.129 64.0291C120.131 64.9487 120.871 65.6957 121.782 65.6975C122.694 65.6994 123.431 64.9552 123.429 64.0356L123.419 59.0401C123.417 58.2266 122.833 57.5313 122.038 57.3955L115.989 56.361C115.545 54.7959 114.925 53.2862 114.142 51.8614L117.698 46.8379C118.166 46.1761 118.089 45.2678 117.517 44.6911L112.838 39.9677C112.267 39.3906 111.367 39.3143 110.711 39.787L105.734 43.3806C104.323 42.5891 102.827 41.9621 101.276 41.5117L100.252 35.4018C100.115 34.6006 99.4259 34.0137 98.621 34.0131L92.0215 34C91.2155 33.9986 90.5289 34.5853 90.3974 35.3872L89.3966 41.4881C87.8476 41.9307 86.3542 42.5501 84.9456 43.3343L79.959 39.7309C79.3018 39.2557 78.4022 39.3284 77.8327 39.9032L73.1712 44.6081C72.6017 45.1829 72.5297 46.0909 73.0006 46.7541L76.576 51.7868C75.7974 53.2083 75.1822 54.7155 74.7421 56.2791L68.6923 57.2878C67.899 57.4228 67.3202 58.1163 67.3229 58.9287L67.3328 63.9242C67.3347 64.8438 68.0749 65.5909 68.986 65.5927Z" fill="white"/>
<path d="M105.28 62.3331C105.282 63.2527 106.022 63.9998 106.933 64.0016C107.844 64.0034 108.581 63.2593 108.579 62.3397C108.565 54.9825 102.643 49.0064 95.3538 48.9919C88.0642 48.9775 82.1666 54.93 82.1813 62.2872C82.1831 63.2068 82.9233 63.9539 83.8345 63.9557C84.7456 63.9575 85.4829 63.2134 85.481 62.2938C85.47 56.7758 89.8931 52.3115 95.3605 52.3223C100.828 52.3332 105.269 56.8151 105.28 62.3331Z" fill="white"/>
<path d="M88.7838 62.3048C88.7857 63.2244 89.5259 63.9714 90.437 63.9732C91.3482 63.975 92.0855 63.2309 92.0836 62.3113C92.08 60.4719 93.5543 58.9839 95.3768 58.9875C97.1993 58.9911 98.6795 60.485 98.6832 62.3244C98.685 63.244 99.4252 63.9911 100.336 63.9929C101.248 63.9947 101.985 63.2506 101.983 62.331C101.976 58.6524 99.0149 55.6643 95.3701 55.6571C91.7253 55.6499 88.7765 58.6261 88.7838 62.3048Z" fill="white"/>
<path d="M136.681 92.3688C136.679 91.4491 135.939 90.7021 135.028 90.7003C134.117 90.6985 133.38 91.4425 133.381 92.3622L133.428 115.675L130.128 115.668L130.095 99.0164C130.093 98.0967 129.353 97.3497 128.442 97.3479C127.531 97.3461 126.793 98.0902 126.795 99.0098L126.828 115.662L123.529 115.655L123.505 103.999C123.504 103.079 122.763 102.332 121.852 102.33C120.941 102.329 120.204 103.073 120.206 103.992L120.229 115.649L116.929 115.642L116.899 100.655C116.897 99.7357 116.157 98.9887 115.246 98.9869C114.335 98.9851 113.598 99.7291 113.599 100.649L113.629 115.635L110.329 115.629L110.293 97.3119C110.291 96.3922 109.551 95.6452 108.64 95.6434C107.729 95.6416 106.991 96.3857 106.993 97.3053L107.03 115.622L103.73 115.616L103.687 93.9684C103.685 93.0487 102.945 92.3017 102.034 92.2999C101.122 92.2981 100.385 93.0422 100.387 93.9618L100.43 115.609L97.1303 115.603L97.1005 100.616C97.0987 99.6964 96.3585 98.9494 95.4473 98.9476C94.5361 98.9458 93.7989 99.6898 93.8007 100.609L93.8306 115.596L90.5308 115.59L90.5142 107.264C90.5124 106.344 89.7722 105.597 88.861 105.595C87.9498 105.593 87.2126 106.337 87.2144 107.257L87.231 115.583L83.9312 115.577L83.9213 110.581C83.9194 109.661 83.1793 108.914 82.2681 108.912C81.3569 108.911 80.6197 109.655 80.6215 110.574L80.6314 115.57L77.3317 115.563L77.3151 107.237C77.3132 106.318 76.5731 105.571 75.6619 105.569C74.7507 105.567 74.0135 106.311 74.0153 107.231L74.0319 115.557L70.7321 115.55L70.7122 105.559C70.7104 104.64 69.9702 103.893 69.059 103.891C68.1478 103.889 67.4106 104.633 67.4124 105.553L67.4323 115.544L64.1326 115.537L64.1226 110.542C64.1208 109.622 63.3806 108.875 62.4694 108.873C61.5582 108.871 60.821 109.615 60.8228 110.535L60.8328 115.531L57.533 115.524C57.5312 114.604 56.791 113.857 55.8798 113.856C54.9686 113.854 54.2314 114.598 54.2332 115.518L54.2399 118.848L136.734 119.012L136.681 92.3688Z" fill="white"/>
<defs>
<linearGradient id="paint0_linear" x1="122.854" y1="-46.0103" x2="65.2261" y2="209.771" gradientUnits="userSpaceOnUse">
<stop stop-color="#FF7B1B"/>
<stop offset="1" stop-color="#FF441B"/>
</linearGradient>
</defs>
</svg>
