<svg width="180" height="185" viewBox="0 0 180 185" fill="none" xmlns="http://www.w3.org/2000/svg">
<path d="M50.5317 13.0185C53.6363 1.59098 66.9011 -3.58738 76.9279 2.71386L108.564 22.5953C111.623 24.5177 115.199 25.454 118.808 25.2774L156.129 23.4509C167.957 22.8721 176.982 33.8864 174.087 45.3688L164.953 81.5979C164.07 85.1011 164.284 88.791 165.567 92.1683L178.837 127.095C183.043 138.165 175.356 150.151 163.54 150.946L126.259 153.455C122.654 153.698 119.21 155.042 116.395 157.306L87.2751 180.719C78.0459 188.139 64.2705 184.532 59.8627 173.541L45.9554 138.863C44.6106 135.51 42.268 132.651 39.2447 130.673L7.9778 110.215C-1.93196 103.732 -2.75825 89.5169 6.33353 81.9288L35.0196 57.9871C37.7934 55.672 39.7889 52.5607 40.7361 49.0743L50.5317 13.0185Z" fill="#1A2124"/>
<path d="M105.632 91.3385C108.82 92.6947 112.382 92.9076 115.71 91.9409C119.039 90.9742 121.928 88.8877 123.885 86.037C125.841 83.1862 126.746 79.7477 126.443 76.3074C126.14 72.867 124.649 69.6378 122.223 67.1699C119.798 64.702 116.589 63.1483 113.143 62.7734C109.696 62.3985 106.226 63.2258 103.323 65.1141C100.421 67.0025 98.2651 69.8351 97.224 73.1293C96.183 76.4235 96.3209 79.9753 97.6142 83.1796C98.3429 84.9999 99.4268 86.6583 100.803 88.0588C102.179 89.4592 103.821 90.574 105.632 91.3385ZM101.199 73.2391C102.216 70.8639 104.029 68.9134 106.327 67.72C108.626 66.5266 111.269 66.1641 113.806 66.6943C116.343 67.2245 118.617 68.6145 120.24 70.6276C121.864 72.6407 122.736 75.1522 122.709 77.7343C122.682 80.3164 121.757 82.8093 120.092 84.7882C118.427 86.7671 116.124 88.1095 113.577 88.5869C111.029 89.0642 108.394 88.6468 106.121 87.4059C103.848 86.165 102.077 84.1773 101.11 81.7814C100.557 80.4224 100.28 78.9677 100.296 77.5014C100.311 76.0351 100.618 74.5864 101.199 73.2391Z" fill="#484E51"/>
<path d="M83.154 84.9788L85.9265 91.8512C86.1136 92.3137 86.4773 92.6833 86.9377 92.8788C87.3982 93.0743 87.9177 93.0798 88.3821 92.8939L92.4353 91.2703C93.8215 93.2006 95.4989 94.9059 97.4079 96.3259L95.6929 100.33C95.5951 100.557 95.5432 100.802 95.5403 101.049C95.5374 101.296 95.5835 101.541 95.6759 101.771C95.7683 102 95.9053 102.209 96.0789 102.386C96.2526 102.562 96.4595 102.703 96.6879 102.8L103.526 105.706C103.755 105.803 104 105.855 104.248 105.858C104.496 105.861 104.743 105.816 104.973 105.724C105.203 105.631 105.413 105.495 105.59 105.322C105.768 105.149 105.909 104.942 106.006 104.715L107.721 100.709C110.07 101.1 112.466 101.125 114.824 100.784L116.455 104.822C116.641 105.284 117.004 105.654 117.464 105.85C117.924 106.045 118.444 106.051 118.908 105.866L125.807 103.102C126.037 103.01 126.246 102.873 126.423 102.701C126.6 102.528 126.742 102.322 126.839 102.095C126.936 101.868 126.987 101.624 126.99 101.377C126.992 101.131 126.946 100.886 126.854 100.657L125.223 96.619C127.16 95.2384 128.872 93.5679 130.298 91.6665L134.319 93.3739C134.547 93.4717 134.792 93.5236 135.04 93.5266C135.288 93.5296 135.535 93.4838 135.765 93.3917C135.995 93.2996 136.205 93.1631 136.383 92.9899C136.56 92.8168 136.701 92.6104 136.798 92.3828L139.714 85.5704C139.812 85.3432 139.863 85.099 139.866 84.8518C139.869 84.6046 139.823 84.3593 139.731 84.1299C139.638 83.9004 139.501 83.6914 139.328 83.5148C139.154 83.3382 138.947 83.1974 138.719 83.1006L134.698 81.3922C135.086 79.0497 135.108 76.6616 134.763 74.3124L138.817 72.691C139.047 72.5988 139.256 72.4624 139.433 72.2896C139.61 72.1168 139.752 71.911 139.849 71.6838C139.946 71.4567 139.997 71.2127 140 70.9658C140.002 70.7188 139.956 70.4739 139.864 70.2448L137.09 63.3723C136.903 62.9103 136.54 62.5412 136.08 62.3457C135.62 62.1502 135.101 62.1444 134.637 62.3296L130.582 63.9543C129.196 62.0241 127.519 60.3188 125.611 58.8987L127.326 54.8944C127.423 54.6671 127.475 54.4229 127.478 54.1757C127.481 53.9285 127.434 53.6832 127.342 53.4538C127.249 53.2243 127.112 53.0154 126.939 52.8388C126.765 52.6622 126.558 52.5215 126.33 52.4246L119.491 49.5253C119.263 49.4275 119.018 49.3756 118.77 49.3725C118.522 49.3693 118.275 49.4151 118.045 49.5071C117.815 49.5991 117.605 49.7355 117.427 49.9085C117.25 50.0816 117.109 50.2878 117.012 50.5154L115.297 54.5218C112.947 54.1318 110.551 54.1065 108.194 54.4466L106.563 50.409C106.376 49.9467 106.013 49.5772 105.553 49.3816C105.093 49.1861 104.574 49.1806 104.11 49.3664L97.2107 52.1282C96.9808 52.2204 96.7715 52.3567 96.5945 52.5295C96.4176 52.7022 96.2766 52.908 96.1795 53.1351C96.0824 53.3621 96.0311 53.606 96.0287 53.8528C96.0262 54.0996 96.0725 54.3444 96.165 54.5733L97.7992 58.612C95.8621 59.9933 94.1507 61.6642 92.7253 63.5656L88.7044 61.856C88.4764 61.758 88.2312 61.7059 87.9829 61.7027C87.7346 61.6995 87.4881 61.7453 87.2576 61.8374C87.0272 61.9296 86.8173 62.0662 86.6401 62.2395C86.4629 62.4128 86.3218 62.6193 86.2251 62.8472L83.3081 69.6595C83.2109 69.8864 83.1594 70.1302 83.1568 70.3769C83.1542 70.6235 83.2004 70.8683 83.2928 71.0972C83.3852 71.3261 83.522 71.5346 83.6953 71.7108C83.8687 71.887 84.0752 72.0274 84.3031 72.124L88.325 73.8314C87.9332 76.1725 87.9073 78.5599 88.2485 80.9089L84.1953 82.5326C83.7317 82.7195 83.3615 83.0822 83.1662 83.5409C82.971 83.9996 82.9666 84.5168 83.154 84.9788ZM91.0846 83.8287C91.4971 83.6636 91.8379 83.3587 92.0468 82.9677C92.2556 82.5767 92.3192 82.1249 92.2262 81.6918C91.6168 78.8682 91.6477 75.9446 92.3167 73.1344C92.4185 72.7037 92.3644 72.2509 92.1638 71.856C91.9633 71.4611 91.6291 71.1495 91.2204 70.976L87.5251 69.4061L88.9621 66.0515L92.6573 67.6203C93.066 67.7952 93.5236 67.8203 93.949 67.6912C94.3744 67.5621 94.7402 67.287 94.9814 66.9148C96.5533 64.4885 98.6497 62.4427 101.117 60.9272C101.495 60.6938 101.777 60.3352 101.915 59.9147C102.053 59.4941 102.038 59.0385 101.872 58.6281L100.374 54.9148L103.771 53.5554L105.27 57.2676C105.41 57.6159 105.651 57.9145 105.963 58.125C106.275 58.3355 106.642 58.4483 107.019 58.4488C107.152 58.4491 107.284 58.4351 107.414 58.4069C110.248 57.7999 113.183 57.8307 116.004 58.4971C116.436 58.6 116.891 58.5468 117.288 58.347C117.685 58.1473 117.997 57.8139 118.171 57.4061L119.747 53.7197L123.114 55.1511L121.538 58.8321C121.364 59.2393 121.34 59.6947 121.47 60.1179C121.599 60.5412 121.875 60.9054 122.247 61.1462C124.684 62.7117 126.738 64.8001 128.259 67.2585C128.494 67.6339 128.854 67.915 129.276 68.0524C129.698 68.1899 130.155 68.1749 130.567 68.0101L134.294 66.5175L135.66 69.9011L131.933 71.3938C131.521 71.559 131.181 71.8638 130.972 72.2546C130.763 72.6453 130.7 73.0968 130.793 73.5296C131.402 76.3532 131.371 79.2767 130.702 82.0869C130.6 82.5177 130.654 82.9705 130.855 83.3654C131.055 83.7602 131.39 84.0719 131.798 84.2453L135.494 85.8142L134.058 89.1699L130.361 87.6021C129.953 87.4276 129.496 87.4027 129.071 87.5318C128.646 87.6609 128.28 87.9358 128.039 88.3076C126.467 90.7335 124.371 92.7791 121.904 94.2953C121.526 94.5287 121.243 94.8875 121.105 95.3083C120.967 95.7291 120.983 96.1849 121.149 96.5954L122.647 100.307L119.25 101.667L117.751 97.956C117.586 97.5449 117.28 97.2054 116.888 96.9973C116.495 96.7892 116.042 96.726 115.607 96.8188C112.773 97.4245 109.838 97.3941 107.017 96.7296C106.585 96.6279 106.13 96.6816 105.734 96.8812C105.337 97.0808 105.024 97.4136 104.85 97.8206L103.274 101.503L99.9067 100.071L101.483 96.3903C101.657 95.9831 101.681 95.5278 101.551 95.1045C101.422 94.6812 101.146 94.3171 100.773 94.0762C98.3376 92.51 96.284 90.4213 94.7626 87.9629C94.5277 87.5874 94.1675 87.3063 93.7453 87.1688C93.3231 87.0314 92.8658 87.0464 92.4536 87.2112L88.7238 88.7017L87.3581 85.3181L91.0846 83.8287Z" fill="#484E51"/>
<path d="M74.9369 121.967C76.7491 121.967 78.5206 121.431 80.0274 120.429C81.5342 119.426 82.7086 118 83.4021 116.332C84.0956 114.664 84.2771 112.829 83.9235 111.059C83.57 109.288 82.6973 107.662 81.4159 106.385C80.1345 105.109 78.5019 104.239 76.7245 103.887C74.9471 103.535 73.1048 103.716 71.4305 104.407C69.7562 105.097 68.3252 106.267 67.3184 107.768C66.3116 109.269 65.7742 111.034 65.7742 112.839C65.7774 115.259 66.7437 117.579 68.4614 119.29C70.179 121.001 72.5078 121.964 74.9369 121.967ZM74.9369 107.47C76.0029 107.47 77.045 107.785 77.9313 108.375C78.8177 108.965 79.5085 109.804 79.9165 110.785C80.3244 111.766 80.4311 112.845 80.2232 113.887C80.0152 114.928 79.5019 115.885 78.7481 116.636C77.9943 117.387 77.0339 117.898 75.9884 118.105C74.9429 118.312 73.8592 118.206 72.8743 117.8C71.8895 117.393 71.0477 116.705 70.4554 115.822C69.8632 114.939 69.5471 113.901 69.5471 112.839C69.5488 111.416 70.1172 110.051 71.1276 109.045C72.138 108.038 73.508 107.472 74.9369 107.47Z" fill="#484E51"/>
<path d="M54.9634 117.441H57.7855C58.182 118.921 58.7731 120.342 59.5437 121.668L57.5473 123.658C57.1938 124.011 56.9952 124.488 56.9952 124.986C56.9952 125.485 57.1938 125.962 57.5473 126.315L61.4107 130.163C61.5858 130.338 61.7938 130.477 62.0227 130.571C62.2515 130.666 62.4969 130.714 62.7447 130.714C62.9925 130.714 63.2378 130.666 63.4667 130.571C63.6956 130.477 63.9036 130.338 64.0787 130.163L66.0751 128.174C67.4058 128.941 68.8325 129.53 70.3179 129.925V132.736C70.3178 132.983 70.3665 133.228 70.4612 133.456C70.556 133.684 70.6949 133.891 70.8701 134.065C71.0453 134.24 71.2534 134.378 71.4823 134.473C71.7112 134.567 71.9566 134.616 72.2044 134.615H77.6675C77.9153 134.616 78.1606 134.567 78.3896 134.473C78.6185 134.378 78.8265 134.24 79.0017 134.065C79.1769 133.891 79.3159 133.684 79.4106 133.456C79.5054 133.228 79.5541 132.983 79.5539 132.736V129.925C81.0393 129.529 82.4659 128.94 83.7968 128.174L85.7932 130.161C85.9683 130.336 86.1763 130.474 86.4052 130.569C86.634 130.664 86.8794 130.712 87.1272 130.712C87.375 130.712 87.6203 130.664 87.8492 130.569C88.0781 130.474 88.2861 130.336 88.4612 130.161L92.3246 126.313C92.6781 125.96 92.8767 125.482 92.8767 124.984C92.8767 124.486 92.6781 124.008 92.3246 123.656L90.3282 121.668C91.0986 120.343 91.6898 118.922 92.0864 117.443H94.9085C95.4088 117.443 95.8886 117.245 96.2424 116.892C96.5962 116.54 96.7949 116.062 96.7949 115.564V110.12C96.7949 109.622 96.5962 109.144 96.2424 108.792C95.8886 108.439 95.4088 108.241 94.9085 108.241H92.0864C91.6894 106.762 91.0982 105.341 90.3282 104.016L92.3246 102.026C92.4999 101.852 92.639 101.645 92.7338 101.417C92.8287 101.189 92.8776 100.944 92.8776 100.698C92.8776 100.451 92.8287 100.207 92.7338 99.9786C92.639 99.7507 92.4999 99.5436 92.3246 99.3693L88.4612 95.5218C88.2861 95.3471 88.0781 95.2086 87.8492 95.114C87.6203 95.0195 87.375 94.9708 87.1272 94.9708C86.8794 94.9708 86.634 95.0195 86.4052 95.114C86.1763 95.2086 85.9683 95.3471 85.7932 95.5218L83.7979 97.5073C82.4665 96.7403 81.0396 96.1511 79.5539 95.7548V92.9435C79.5541 92.6967 79.5054 92.4523 79.4106 92.2242C79.3159 91.9961 79.1769 91.7889 79.0017 91.6144C78.8265 91.4399 78.6185 91.3015 78.3896 91.2071C78.1606 91.1127 77.9153 91.0642 77.6675 91.0643H72.2044C71.9566 91.0642 71.7112 91.1127 71.4823 91.2071C71.2534 91.3015 71.0453 91.4399 70.8701 91.6144C70.6949 91.7889 70.556 91.9961 70.4612 92.2242C70.3665 92.4523 70.3178 92.6967 70.3179 92.9435V95.7548C68.832 96.1502 67.405 96.7395 66.074 97.5073L64.0787 95.5196C63.9036 95.345 63.6956 95.2064 63.4667 95.1119C63.2378 95.0174 62.9925 94.9687 62.7447 94.9687C62.4969 94.9687 62.2515 95.0174 62.0227 95.1119C61.7938 95.2064 61.5858 95.345 61.4107 95.5196L57.5473 99.3671C57.372 99.5415 57.2329 99.7485 57.1381 99.9765C57.0432 100.204 56.9943 100.449 56.9943 100.695C56.9943 100.942 57.0432 101.187 57.1381 101.414C57.2329 101.642 57.372 101.849 57.5473 102.024L59.5437 104.014C58.7737 105.339 58.1825 106.76 57.7855 108.239H54.9634C54.4631 108.239 53.9833 108.437 53.6295 108.789C53.2757 109.142 53.077 109.62 53.077 110.118V115.562C53.077 116.06 53.2757 116.538 53.6295 116.89C53.9833 117.243 54.4631 117.441 54.9634 117.441ZM56.8498 111.997H59.3001C59.7446 111.997 60.1748 111.841 60.515 111.556C60.8551 111.271 61.0834 110.876 61.1595 110.439C61.5079 108.42 62.3049 106.504 63.4923 104.832C63.7476 104.47 63.8665 104.03 63.8281 103.589C63.7896 103.148 63.5963 102.735 63.2821 102.422L61.5487 100.695L62.7442 99.5057L64.4786 101.232C64.793 101.545 65.208 101.737 65.6507 101.775C66.0934 101.813 66.5353 101.694 66.8986 101.44C68.578 100.258 70.5012 99.4646 72.5278 99.118C72.9652 99.0417 73.3617 98.8144 73.6476 98.4758C73.9334 98.1372 74.0904 97.7091 74.0908 97.2667V94.8227H75.7811V97.2646C75.7813 97.707 75.9382 98.1352 76.2241 98.4739C76.51 98.8125 76.9066 99.0398 77.3441 99.1159C79.3708 99.4632 81.294 100.257 82.9733 101.44C83.3364 101.695 83.7784 101.814 84.2213 101.776C84.6641 101.738 85.0792 101.546 85.3933 101.232L87.1277 99.5057L88.3232 100.695L86.5898 102.422C86.2748 102.734 86.0804 103.147 86.041 103.588C86.0016 104.029 86.1196 104.469 86.3742 104.832C87.5616 106.504 88.3586 108.42 88.7069 110.439C88.7831 110.876 89.0114 111.271 89.3515 111.556C89.6917 111.841 90.1219 111.997 90.5664 111.997H93.022V113.682H90.5718C90.1273 113.682 89.6969 113.838 89.3567 114.123C89.0165 114.408 88.7883 114.804 88.7123 115.24C88.3643 117.259 87.5677 119.175 86.3807 120.848C86.1248 121.21 86.0055 121.65 86.0437 122.091C86.082 122.532 86.2754 122.945 86.5898 123.258L88.3232 124.984L87.1277 126.178L85.3933 124.452C85.0792 124.139 84.6644 123.946 84.2219 123.908C83.7794 123.87 83.3376 123.989 82.9743 124.243C81.295 125.426 79.3719 126.22 77.3452 126.567C76.9073 126.643 76.5102 126.87 76.224 127.208C75.9378 127.547 75.7809 127.976 75.7811 128.418V130.857H74.0908V128.415C74.0908 127.973 73.9338 127.544 73.6477 127.205C73.3615 126.867 72.9645 126.64 72.5267 126.564C70.4993 126.219 68.575 125.427 66.8943 124.246C66.5314 123.99 66.0895 123.871 65.6468 123.909C65.2042 123.947 64.7892 124.14 64.4754 124.453L62.7442 126.178L61.5487 124.988L63.2821 123.258C63.5965 122.945 63.7899 122.532 63.8282 122.091C63.8664 121.65 63.7471 121.21 63.4912 120.848C62.3042 119.175 61.5076 117.259 61.1595 115.24C61.0836 114.804 60.8554 114.408 60.5152 114.123C60.175 113.838 59.7446 113.682 59.3001 113.682H56.8498V111.997Z" fill="#484E51"/>
</svg>
