<svg width="21" height="21" viewBox="0 0 21 21" xmlns="http://www.w3.org/2000/svg">
<path d="M16.7668 1.69931L1.69935 16.7667C0.76234 17.7037 0.568167 19.0342 1.26737 19.7334C1.96572 20.4318 3.29623 20.2376 4.23324 19.3006L19.3006 4.2332C20.2377 3.29619 20.4318 1.96568 19.7335 1.26733C19.0343 0.568122 17.7038 0.762295 16.7668 1.69931Z"/>
<path d="M19.3009 16.7668L4.23353 1.69935C3.29652 0.76234 1.96601 0.568167 1.2668 1.26737C0.568457 1.96572 0.76263 3.29623 1.69964 4.23324L16.767 19.3006C17.7041 20.2377 19.0346 20.4318 19.7329 19.7335C20.4321 19.0343 20.2379 17.7038 19.3009 16.7668Z"/>
</svg>
