<svg width="163" height="30" viewBox="0 0 163 30" fill="none" xmlns="http://www.w3.org/2000/svg">
<ellipse cx="12.8687" cy="27" rx="3.00263" ry="3" fill="white"/>
<path d="M0 25.7143V21.4286C2.57368 21.4286 4.28947 19.2857 4.28947 17.1429V8.57143C4.28947 3.42857 8.57894 0 12.8684 0C17.1579 0 21.4474 3.42857 21.4474 8.57143V17.1429C21.4474 19.2857 23.1632 21.4286 25.7368 21.4286V25.7143C20.5895 25.7143 17.1579 21.4286 17.1579 17.1429V8.57143C17.1579 6 15.0132 4.28571 12.8684 4.28571C10.7237 4.28571 8.57894 6 8.57894 8.57143V17.1429C8.57894 21.4286 5.14737 25.7143 0 25.7143Z" fill="white"/>
<path d="M37.318 25.7143V21.4286C34.7443 21.4286 33.0285 19.2857 33.0285 17.1429V0L28.7391 2.14286V17.1429C28.7391 21.4286 32.1707 25.7143 37.318 25.7143Z" fill="white"/>
<path d="M48.8999 25.7143V21.4286C46.3262 21.4286 44.6105 19.2857 44.6105 17.1429V0L40.321 2.14286V17.1429C40.321 21.4286 43.7526 25.7143 48.8999 25.7143Z" fill="white"/>
<path fill-rule="evenodd" clip-rule="evenodd" d="M51.4738 17.1429C51.4738 12 55.7633 8.57144 60.0528 8.57144C64.3422 8.57144 68.6317 12 68.6317 17.1429C68.6317 22.2857 64.3422 25.7143 60.0528 25.7143C55.7633 25.7143 51.4738 22.2857 51.4738 17.1429ZM55.7634 17.1429C55.7634 14.5715 57.9081 12.8572 60.0529 12.8572C62.1976 12.8572 64.3424 14.5715 64.3424 17.1429C64.3424 19.7144 62.1976 21.4286 60.0529 21.4286C57.9081 21.4286 55.7634 19.7144 55.7634 17.1429Z" fill="white"/>
<path d="M68.6316 25.7143L68.6316 17.1428L64.3421 17.1428L64.3421 23.5714L68.6316 25.7143Z" fill="white"/>
<path d="M81.4998 8.5714V12.8571C78.9261 12.8571 77.2103 15 77.2103 17.1428V25.7143H72.9208V17.1428C72.9208 12.8571 76.3524 8.5714 81.4998 8.5714Z" fill="white"/>
<path d="M85.3607 15C85.3607 12 87.7199 8.57139 91.7949 8.57139C95.8699 8.57139 98.2291 12 98.2291 15V25.7142H93.9396C93.9396 25.7142 93.9395 14.9797 93.9396 15C93.9396 13.7142 92.8672 12.8571 91.7949 12.8571C90.7225 12.8571 89.6501 13.7142 89.6501 15C89.6502 14.9797 89.6501 25.7142 89.6501 25.7142H85.3607V15Z" fill="white"/>
<path d="M93.9399 15C93.9399 12 96.2991 8.5714 100.374 8.5714C104.449 8.5714 106.808 12 106.808 15V25.7143H102.519C102.519 25.7143 102.519 14.9797 102.519 15C102.519 13.7143 101.446 12.8571 100.374 12.8571C99.3017 12.8571 98.2294 13.7143 98.2294 15C98.2294 14.9797 98.2294 25.7143 98.2294 25.7143H93.9399V15Z" fill="white"/>
<path d="M85.3605 8.57144L85.3605 17.1429L89.6499 17.1429L89.6499 10.7143L85.3605 8.57144Z" fill="white"/>
<path fill-rule="evenodd" clip-rule="evenodd" d="M109.811 17.1429C109.811 12 114.1 8.57144 118.39 8.57144C122.679 8.57144 126.969 12 126.969 17.1429C126.969 22.2857 122.679 25.7143 118.39 25.7143C114.1 25.7143 109.811 22.2857 109.811 17.1429ZM114.1 17.1429C114.1 14.5715 116.245 12.8572 118.39 12.8572C120.534 12.8572 122.679 14.5715 122.679 17.1429C122.679 19.7144 120.534 21.4286 118.39 21.4286C116.245 21.4286 114.1 19.7144 114.1 17.1429Z" fill="white"/>
<ellipse cx="131.686" cy="23.5714" rx="2.14474" ry="2.14286" fill="white"/>
<path d="M146.7 8.5714V12.8571C144.126 12.8571 142.411 15 142.411 17.1428V25.7143H138.121V17.1428C138.121 12.8571 141.553 8.5714 146.7 8.5714Z" fill="white"/>
<path d="M150.132 19.2857C150.132 22.2857 152.491 25.7143 156.566 25.7143C160.641 25.7143 163 22.2857 163 19.2857V8.57144H158.711C158.711 8.57144 158.71 19.306 158.711 19.2857C158.711 20.5714 157.638 21.4286 156.566 21.4286C155.493 21.4286 154.421 20.5714 154.421 19.2857C154.421 19.306 154.421 8.57144 154.421 8.57144H150.132V19.2857Z" fill="white"/>
<path d="M163 25.7143L163 17.1428L158.711 17.1428L158.711 23.5714L163 25.7143Z" fill="white"/>
</svg>
