<svg width="35" height="34" viewBox="0 0 35 34" fill="none" xmlns="http://www.w3.org/2000/svg">
<path fill-rule="evenodd" clip-rule="evenodd" d="M14.0672 28.2469L14.0192 28.1526L0 19.4286L4.99314 15.8447L9.12208 0L14.1152 3.58391L30.775 2.54646L28.8546 8.29958L35 23.5312H28.8066L28.7586 23.5784L15.9396 34L14.0672 28.2469Z" fill="#1A2124"/>
<path fill-rule="evenodd" clip-rule="evenodd" d="M14.0664 28.1055V28.1998L23.7646 23.4841L25.589 23.5313H28.7577H28.8057L28.6137 22.1166L27.2694 13.0153L28.8538 8.34681H28.8057L28.6617 8.29966L18.1953 6.5077L14.1144 3.58398V3.63114L12.8661 5.89466L9.07324 12.9682L5.18435 15.7504L4.99231 15.8919L12.53 23.4841L14.0664 28.1055Z" fill="#FF7B1B"/>
</svg>
