<svg width="141" height="26" viewBox="0 0 141 26" fill="none" xmlns="http://www.w3.org/2000/svg">
<ellipse cx="11.1325" cy="23.3998" rx="2.59737" ry="2.6" fill="#10181B"/>
<path d="M0 22.2857V18.5715C2.22631 18.5715 3.71052 16.7143 3.71052 14.8572V7.42858C3.71052 2.97143 7.42105 0 11.1316 0C14.8421 0 18.5526 2.97143 18.5526 7.42858V14.8572C18.5526 16.7143 20.0368 18.5715 22.2631 18.5715V22.2857C17.8105 22.2857 14.8421 18.5715 14.8421 14.8572V7.42858C14.8421 5.20001 12.9868 3.71429 11.1316 3.71429C9.27631 3.71429 7.42105 5.20001 7.42105 7.42858V14.8572C7.42105 18.5715 4.45263 22.2857 0 22.2857Z" fill="#10181B"/>
<path d="M32.2817 22.2857V18.5715C30.0554 18.5715 28.5712 16.7143 28.5712 14.8572V0L24.8607 1.85715V14.8572C24.8607 18.5715 27.8291 22.2857 32.2817 22.2857Z" fill="#10181B"/>
<path d="M42.3003 22.2857V18.5715C40.074 18.5715 38.5898 16.7143 38.5898 14.8572V0L34.8793 1.85715V14.8572C34.8793 18.5715 37.8477 22.2857 42.3003 22.2857Z" fill="#10181B"/>
<path fill-rule="evenodd" clip-rule="evenodd" d="M44.5266 14.8568C44.5266 10.3997 48.2371 7.42822 51.9476 7.42822C55.6581 7.42822 59.3687 10.3997 59.3687 14.8568C59.3687 19.314 55.6581 22.2854 51.9476 22.2854C48.2371 22.2854 44.5266 19.314 44.5266 14.8568ZM48.2375 14.8569C48.2375 12.6283 50.0927 11.1426 51.948 11.1426C53.8033 11.1426 55.6585 12.6283 55.6585 14.8569C55.6585 17.0854 53.8033 18.5712 51.948 18.5712C50.0927 18.5712 48.2375 17.0854 48.2375 14.8569Z" fill="#10181B"/>
<path d="M59.3678 22.2847L59.3678 14.8561L55.6573 14.8561L55.6573 20.4275L59.3678 22.2847Z" fill="#10181B"/>
<path d="M70.4999 7.42799V11.1423C68.2736 11.1423 66.7894 12.9994 66.7894 14.8566V22.2852H63.0789V14.8566C63.0789 11.1423 66.0473 7.42799 70.4999 7.42799Z" fill="#10181B"/>
<path d="M73.8387 12.9997C73.8387 10.3997 75.8795 7.42823 79.4045 7.42823C82.9295 7.42823 84.9703 10.3997 84.9703 12.9997V22.2854H81.2598C81.2598 22.2854 81.2597 12.9821 81.2598 12.9997C81.2598 11.8854 80.3322 11.1425 79.4045 11.1425C78.4769 11.1425 77.5493 11.8854 77.5493 12.9997C77.5493 12.9821 77.5493 22.2854 77.5493 22.2854H73.8387V12.9997Z" fill="#10181B"/>
<path d="M81.2606 12.9994C81.2606 10.3994 83.3014 7.42799 86.8264 7.42799C90.3514 7.42799 92.3922 10.3994 92.3922 12.9994V22.2852H88.6817C88.6817 22.2852 88.6816 12.9818 88.6817 12.9994C88.6817 11.8851 87.754 11.1423 86.8264 11.1423C85.8988 11.1423 84.9711 11.8851 84.9711 12.9994C84.9712 12.9818 84.9711 22.2852 84.9711 22.2852H81.2606V12.9994Z" fill="#10181B"/>
<path d="M73.8389 7.42822L73.8389 14.8568L77.5494 14.8568L77.5494 9.28537L73.8389 7.42822Z" fill="#10181B"/>
<path fill-rule="evenodd" clip-rule="evenodd" d="M94.9896 14.8568C94.9896 10.3997 98.7001 7.42822 102.411 7.42822C106.121 7.42822 109.832 10.3997 109.832 14.8568C109.832 19.314 106.121 22.2854 102.411 22.2854C98.7001 22.2854 94.9896 19.314 94.9896 14.8568ZM98.6993 14.8569C98.6993 12.6283 100.555 11.1426 102.41 11.1426C104.265 11.1426 106.12 12.6283 106.12 14.8569C106.12 17.0854 104.265 18.5712 102.41 18.5712C100.555 18.5712 98.6993 17.0854 98.6993 14.8569Z" fill="#10181B"/>
<ellipse cx="113.913" cy="20.4289" rx="1.85526" ry="1.85715" fill="#10181B"/>
<path d="M126.9 7.42799V11.1423C124.674 11.1423 123.189 12.9994 123.189 14.8566V22.2852H119.479V14.8566C119.479 11.1423 122.447 7.42799 126.9 7.42799Z" fill="#10181B"/>
<path d="M129.868 16.714C129.868 19.314 131.909 22.2854 135.434 22.2854C138.959 22.2854 141 19.314 141 16.714V7.42822H137.289C137.289 7.42822 137.289 16.7315 137.289 16.714C137.289 17.8282 136.362 18.5711 135.434 18.5711C134.507 18.5711 133.579 17.8282 133.579 16.714C133.579 16.7315 133.579 7.42822 133.579 7.42822H129.868V16.714Z" fill="#10181B"/>
<path d="M140.999 22.2847L140.999 14.8561L137.289 14.8561L137.289 20.4275L140.999 22.2847Z" fill="#10181B"/>
</svg>
