<svg width="682" height="648" viewBox="0 0 682 648" fill="none" xmlns="http://www.w3.org/2000/svg">
<path d="M12.8853 814.164C-27.314 854.363 -92.5184 854.334 -132.753 814.1C-172.987 773.865 -173.016 708.661 -132.817 668.462C-92.6175 628.263 -27.413 628.291 12.8215 668.526C53.056 708.76 53.0845 773.965 12.8853 814.164Z" fill="#FF8328"/>
<path d="M-341 397.89L-237.018 293.908C-174.575 356.352 -80.9547 345.99 -28.9639 293.999L178.999 86.0359C303.777 -38.742 491.035 -17.8545 595.108 86.2183C699.181 190.291 720.069 377.549 595.291 502.327L387.327 710.291C335.337 762.281 324.975 855.901 387.419 918.345L283.437 1022.33C158.55 897.439 179.273 710.199 283.255 606.218L491.218 398.254C553.607 335.865 543.163 242.236 491.127 190.2C439.09 138.164 345.461 127.72 283.072 190.109L75.1089 398.072C-28.8727 502.054 -216.113 522.777 -341 397.89Z" fill="#FF8328"/>
</svg>
