<svg width="289" height="771" viewBox="0 0 289 771" fill="none" xmlns="http://www.w3.org/2000/svg">
<path d="M286.841 -14.7791C286.841 -62.9499 325.926 -102 374.139 -102C422.352 -102 461.436 -62.9499 461.436 -14.7791C461.436 33.3917 422.352 72.4418 374.139 72.4418C325.926 72.4418 286.841 33.3917 286.841 -14.7791Z" fill="#FF8328"/>
<path d="M748.283 22.6014V147.203C673.456 147.203 623.572 209.503 623.572 271.804V521.006C623.572 670.528 498.862 770.209 374.151 770.209C249.441 770.209 124.73 670.528 124.73 521.006L124.73 271.804C124.73 209.503 74.8458 147.203 0.0195312 147.203L0.0195421 22.6013C149.672 22.6013 249.441 147.203 249.441 271.804L249.441 521.006C249.441 595.767 311.796 645.608 374.151 645.608C436.506 645.608 498.862 595.767 498.862 521.006L498.862 271.804C498.862 147.203 598.63 22.6014 748.283 22.6014Z" fill="#FF8328"/>
</svg>
