<svg width="664" height="664" viewBox="0 0 664 664" fill="none" xmlns="http://www.w3.org/2000/svg">
<path d="M229.877 528.782C203.764 554.894 161.409 554.876 135.273 528.74C109.138 502.605 109.119 460.249 135.232 434.137C161.344 408.024 203.7 408.043 229.835 434.178C255.971 460.314 255.989 502.669 229.877 528.782Z" fill="#FF8328"/>
<path d="M0 258.379L67.5443 190.834C108.107 231.396 168.92 224.666 202.692 190.893L337.781 55.8047C418.834 -25.2485 540.473 -11.6804 608.077 55.9232C675.68 123.527 689.249 245.166 608.195 326.219L473.107 461.308C439.334 495.08 432.604 555.894 473.166 596.456L405.621 664C324.497 582.876 337.959 461.249 405.503 393.704L540.592 258.615C581.118 218.089 574.334 157.269 540.532 123.468C506.731 89.6658 445.911 82.8817 405.385 123.408L270.296 258.497C202.752 326.041 81.1243 339.503 0 258.379Z" fill="#FF8328"/>
</svg>
